<?xml version="1.0" encoding="UTF-8"?>
<svg height="113.386pt" version="1.1" width="185.539pt" xmlns:xlink="http://www.w3.org/1999/xlink" xmlns="http://www.w3.org/2000/svg" xmlns:inkscape="http://www.inkscape.org/namespaces/inkscape" viewBox="0 0 185.539 113.386">
 <defs>
  <clipPath id="Clip0">
   <path d="M0 0 L185.95 0 L185.95 113.386 L0 113.386 L0 0 Z"/>
  </clipPath>
 </defs>
 <g inkscape:label="Background" inkscape:groupmode="layer" id="Background">
  <g transform="translate(0, 0) scale(0.997788, 0.997788)" clip-path="url(#Clip0)" clip-rule="evenodd" id="Group11" style="fill:none; stroke:none">
   <path transform="translate(0, 71.0772)" d="M0.139466 0.883528 C0 0.324527 0.23293 0 0.836632 0 L1.30152 0 C1.76722 0 2.0455 0.231226 2.18504 0.696922 L8.88008 26.5009 C9.29952 28.0822 9.67024 29.9871 9.67024 29.9871 L9.7636 29.9871 C9.7636 29.9871 10.1822 28.1284 10.6471 26.5009 L17.9003 0.649866 C18.0398 0.231226 18.3181 0 18.7838 0 L19.6211 0 C20.0852 0 20.365 0.231226 20.503 0.649866 L27.757 26.5009 C28.2218 28.1284 28.6422 29.9871 28.6422 29.9871 L28.733 29.9871 C28.733 29.9871 29.1054 28.0822 29.5232 26.5009 L36.4511 0.696922 C36.5906 0.231226 36.8689 0 37.3346 0 L37.7995 0 C38.3569 0 38.636 0.324527 38.4964 0.883528 L30.1293 31.8946 C29.989 32.3124 29.7098 32.5452 29.245 32.5452 L28.1286 32.5452 C27.6637 32.5452 27.3846 32.3124 27.245 31.8946 L20.5501 7.99635 C19.9456 5.90478 19.295 2.83556 19.295 2.83556 L19.1091 2.83556 C19.1091 2.83556 18.4577 5.90478 17.8532 7.99635 L11.1582 31.8946 C11.0186 32.3124 10.7404 32.5452 10.2747 32.5452 L9.15992 32.5452 C8.69504 32.5452 8.416 32.3124 8.2756 31.8483 L0.139466 0.883528 Z" style="fill:#04275f; fill-rule:evenodd;stroke:none;"/>
   <path transform="translate(45.7107, 71.0772)" d="M0 2.60271 L0 0.790224 C0 0.27666 0.277471 0 0.789413 0 L1.53339 0 C2.04534 0 2.32442 0.27666 2.32442 0.790224 L2.32442 2.60271 C2.32442 3.11546 2.04534 3.39294 1.53339 3.39294 L0.789413 3.39294 C0.277471 3.39294 0 3.11546 0 2.60271 Z M0.186603 10.0879 C0.186603 9.5768 0.464074 9.29768 0.975208 9.29768 L1.3476 9.29768 C1.85873 9.29768 2.13782 9.5768 2.13782 10.0879 L2.13782 31.755 C2.13782 32.2654 1.85873 32.5452 1.3476 32.5452 L0.975208 32.5452 C0.464074 32.5452 0.186603 32.2654 0.186603 31.755 L0.186603 10.0879 Z" style="fill:#04275f; fill-rule:evenodd;stroke:none;"/>
   <path transform="translate(55.8002, 71.0772)" d="M10.4149 8.74032 C16.2726 8.74032 18.4583 13.9944 18.4583 13.9944 L18.5508 13.9944 C18.5508 13.9944 18.365 13.1563 18.365 12.0886 L18.365 0.790224 C18.365 0.27666 18.6449 0 19.1552 0 L19.5268 0 C20.0379 0 20.317 0.27666 20.317 0.790224 L20.317 31.755 C20.317 32.2654 20.0379 32.5452 19.5268 32.5452 L19.1552 32.5452 C18.6449 32.5452 18.365 32.2654 18.365 31.755 L18.365 29.6164 C18.365 28.5462 18.5508 27.8494 18.5508 27.8494 L18.4583 27.8494 C18.4583 27.8494 16.4584 33.1018 10.0425 33.1018 C3.81238 33.1018 0 28.1284 0 20.9223 C0 13.5287 4.32352 8.74032 10.4149 8.74032 M10.135 31.1968 C14.4122 31.1968 18.4113 28.1746 18.4113 20.876 C18.4113 15.7153 15.7606 10.6462 10.3216 10.6462 C5.76523 10.6462 2.04534 14.4114 2.04534 20.9223 C2.04534 27.1978 5.39283 31.1968 10.135 31.1968 " style="fill:#04275f; fill-rule:evenodd;stroke:none;"/>
   <path transform="translate(84.026, 79.8175)" d="M11.2984 0 C17.3411 0 20.7827 4.37058 20.7827 11.0656 C20.7827 11.5759 20.4103 11.855 19.9454 11.855 L2.04614 11.855 C2.04614 18.5978 6.60332 22.4565 11.9954 22.4565 C15.2025 22.4565 17.5286 20.9694 18.5508 20.085 C18.9686 19.7589 19.3418 19.8059 19.6201 20.2254 L19.9 20.5962 C20.1329 20.9223 20.0858 21.3401 19.7126 21.62 C18.5978 22.5498 15.8078 24.3614 11.9954 24.3614 C5.43908 24.3614 0 19.621 0 12.2274 C0 4.37058 5.3474 0 11.2984 0 Z M18.7382 10.0417 C18.5054 4.37058 15.11 1.8133 11.2522 1.8133 C6.9741 1.8133 3.02298 4.60342 2.1857 10.0417 L18.7382 10.0417 Z" style="fill:#04275f; fill-rule:evenodd;stroke:none;"/>
   <path transform="translate(110.159, 70.0533)" d="M0.931392 28.0822 L1.95203 26.5942 C2.69601 25.5719 3.48786 25.5257 4.65048 26.1764 C5.71898 26.9204 8.09048 28.595 11.3463 28.595 C14.4147 28.595 16.2742 27.0591 16.2742 24.828 C16.2742 18.5508 0.885152 19.853 0.885152 9.5776 C0.885152 3.76614 5.71898 0 11.9962 0 C15.9026 0 19.1098 1.48796 20.5045 2.51103 C21.5267 3.25501 21.6662 4.13934 21.1097 5.1608 L20.2716 6.695 C19.5755 8.04344 18.5986 7.85843 17.6218 7.34568 C16.2742 6.55546 14.461 5.534 11.9037 5.534 C8.83448 5.534 6.88242 7.02115 6.88242 9.25312 C6.88242 15.4362 22.2707 13.8549 22.2707 24.3622 C22.2707 29.7097 18.2742 34.1257 11.3463 34.1257 C6.64875 34.1257 2.83637 32.0349 1.20886 30.779 C0.464886 30.1291 0 29.3389 0.931392 28.0822 " style="fill:#04275f; fill-rule:evenodd;stroke:none;"/>
   <path transform="translate(138.71, 70.6107)" d="M0 1.95446 C0 0.697734 0.696922 0 1.95203 0 L3.95274 0 C5.25329 0 5.90478 0.697734 5.90478 1.95446 L5.90478 17.6697 L8.8328 17.6697 L13.7624 10.6015 C14.3206 9.67088 15.0167 9.29936 16.086 9.29936 L18.3179 9.29936 C19.8992 9.29936 20.412 10.3686 19.5276 11.6254 L13.6229 19.9017 L13.6229 19.9934 L20.5954 30.6873 C21.3872 32.0349 20.876 33.011 19.2948 33.011 L16.7854 33.011 C15.7153 33.011 15.0167 32.5931 14.5064 31.6642 L8.9724 22.6439 L5.90478 22.6439 L5.90478 31.0597 C5.90478 32.3602 5.25329 33.011 3.95274 33.011 L1.95203 33.011 C0.696922 33.011 0 32.3602 0 31.0597 L0 1.95446 Z" style="fill:#04275f; fill-rule:evenodd;stroke:none;"/>
   <path transform="translate(162.192, 79.91)" d="M3.30206 28.1754 C3.7199 28.3621 4.27727 28.5941 4.97501 28.5941 C6.69582 28.5941 8.04344 27.1062 8.74112 25.4332 L9.62464 23.3392 L0.604432 2.27899 C0 0.930584 0.604432 0 2.09239 0 L4.60342 0 C5.76523 0 6.41753 0.51113 6.7883 1.58207 L11.2522 13.6699 C11.67 14.925 12.1357 16.877 12.1357 16.877 L12.229 16.877 C12.229 16.877 12.6468 15.0183 13.0192 13.7616 L17.2032 1.62832 C17.5294 0.51113 18.2271 0 19.3881 0 L21.7133 0 C23.1542 0 23.7586 0.884336 23.2946 2.23194 L13.5303 27.2449 C11.9029 31.57 8.46288 33.4758 4.97501 33.4758 C3.67365 33.4758 2.51184 33.1034 1.67456 32.7797 C0.558187 32.3594 0.279905 31.3372 0.791036 30.267 L1.20886 29.2456 C1.72081 28.1754 2.51184 27.9889 3.30206 28.1754 " style="fill:#04275f; fill-rule:evenodd;stroke:none;"/>
   <path transform="translate(94.4871, 0)" d="M0 0 L24.0678 40.5749 L14.3758 57.507 L0 46.6719 L0 0 Z" style="fill:#006cb3; fill-rule:evenodd;stroke:none;"/>
   <path transform="translate(70.3699, 0)" d="M24.0678 0 L0 40.5749 L9.6912 57.507 L24.0678 46.6719 L24.0678 0 Z" style="fill:#48a1d4; fill-rule:evenodd;stroke:none;"/>
   <path transform="translate(90.9035, 0)" d="M3.5341 0 L0 49.3354 L3.5341 46.6719 L3.5341 0 Z" style="fill:#006cb3; fill-rule:evenodd;stroke:none;"/>
   <path transform="translate(94.4871, 0)" d="M0 0 L3.5341 49.3354 L0 46.6719 L0 0 Z" style="fill:#04275f; fill-rule:evenodd;stroke:none;"/>
  </g>
 </g>
</svg>
