<svg id="Layer_1" data-name="Layer 1" xmlns="http://www.w3.org/2000/svg" xmlns:xlink="http://www.w3.org/1999/xlink" viewBox="0 0 82.43 82.43"><defs><style>.cls-1{fill:none;}.cls-2{fill:#4d9ed7;}.cls-3{opacity:0.8;}.cls-4{clip-path:url(#clip-path);}.cls-5{fill:#4ba0d2;}.cls-6{fill:#272a69;}.cls-7{fill:#0073bc;}.cls-8{fill:#fff;}</style><clipPath id="clip-path"><rect class="cls-1" x="24.12" y="35.02" width="33.09" height="32.59"/></clipPath></defs><path class="cls-2" d="M36.27,36.63c.33,0,.67,0,1,0a12.84,12.84,0,0,1,10.24,5.08A12.39,12.39,0,0,1,48.39,43a14.7,14.7,0,0,1-1.15,29.35H33.93l17,9.94L77.86,67l.23-31L51.33,20.22,30.76,31.9a16.64,16.64,0,0,1,1.72,1,15.5,15.5,0,0,1,3.79,3.7"/><g class="cls-3"><g class="cls-4"><path class="cls-5" d="M57.21,57.63a10,10,0,0,0-10-10,10.07,10.07,0,0,0-2,.19,8.16,8.16,0,0,0-11.41-5.79,10.86,10.86,0,0,0-8.58-7l-.92.52-.23,31,1.77,1H47.24a10,10,0,0,0,10-10"/></g></g><path class="cls-6" d="M57.21,57.63a10,10,0,0,0-10-10,10.07,10.07,0,0,0-2,.19,8.16,8.16,0,0,0-11.41-5.79,10.86,10.86,0,0,0-8.58-7l-.92.52-.23,31,1.77,1H47.24a10,10,0,0,0,10-10"/><path class="cls-7" d="M24.12,66.57l.23-31,.92-.52a11.21,11.21,0,0,0-1.64-.12A11.42,11.42,0,0,0,22,35a11.25,11.25,0,0,0-2.07.53l-.29.12a10.87,10.87,0,0,0-6.22,13.81,9.07,9.07,0,0,0,.28,18.13h12.2Z"/><polygon class="cls-8" points="48.93 58.77 46.76 57.52 44.6 58.77 44.6 61.27 46.76 62.52 48.93 61.27 48.93 58.77"/><polygon class="cls-8" points="40.83 61.32 38.3 57.07 35.77 61.32 36.79 63.1 38.3 61.96 39.81 63.1 40.83 61.32"/></svg>